<?xml version="1.0" encoding="UTF-8"?>
<svg version="1.1" viewBox="0 0 2000 1196" width="500" height="299" xmlns="http://www.w3.org/2000/svg">
<path transform="translate(1251,192)" d="m0 0h2l-1 6-6 15-5 21-1 14 3 12 5 10 5 4 10 4h12l15-3 36-13 26-10 29-12 32-14 26-11 15-6v3l-14 11-9 7-16 13-16 15-10 11-9 14-4 9-2 7v9l4 11 9 8 16 8 3 3-10 5-16 7-15 9-19 14-8 8-8 10-11 18-6 16-1 5v23l4 15 8 15 4 7-7-1h-22l-19 5-13 5-12 8-12 11-6 8v2l59 1 32 4 30 7 11 2 13 1h27l20-2 14-3 14-5 9-7 5-6 1-7-21 5-4 1h-28l-16-4-12-5-6-4-7-6-7-11-3-7-1-5v-17l4-11 6-10 12-11 10-6 12-5 17-3h25l16 3 19 7 7 4h2l9-20 6-13-40 3h-9l-10-3-1-4 12-12 11-9 7-7 8-7 23-23 9-11 11-11 7-8 9-10 10-11 9-11 7-8 3-1v10l-2 28v36l1 18 4 33 5 24 5 16 4 8-1 2-16-7-13-10-12-12-7-8-2-1-4 13-13 43 1 8 5 15 2 9v20l-4 16-6 14-7 11-11 14-4 2v2l-11 9-14 10-16 9-16 8-26 10-19 6-26 5-12 1 6 7 17 8 49 28 14 9 15 9 14 10 6 5 6 8 1 7-6 2h-11l-12-6-11-8-9-6h-2l4 13 3 22 1 20-1 19-6 34-6 30-3 9 2 10 9-1 23-8 10-5h17l12 3 18 10 12 9 13 12 14 14 9 12 4 11v9l-5 10-8 9-14 9-16 7-17 5-25 5-27 3-36 2-40 2-14 2-15 5-15 3-9 1h-19l-34-2h-20l-19 3-21 7-17 8-17 5-6 1h-21l-19-3-22-5-24-3-16 1-25 3-31 5-11 1h-25l-17-2-24-5-32-3-15 1-18 3-22 5-21 3h-8l-6-1-13-2-20-8-19-8-16-5-6-1h-45l-6 1-17 1h-14l-26-4-4-3-14-3-14-1-43-2-49-3-11-3-16-3-17-5-18-8-12-8-9-9-4-9v-11l4-11 8-12 9-10 5-5 9-8 19-13 15-8 12-4h15l12 5 13 6 10 2h11l6 1 7-3 1-1v-5l-2-2v-3l2-2-4-5-10-3-5 3h-3l1-6 6-7 5-3 11 1 19 5h7l19 9 7 3 10-1 18-5 28-6 7-3 9-9 3-5 2-12 4-14 9-11 2-3v-10l3-8 9-9 2-4 2-20-31 2-24 4-8 4-4 11-7 15-6 11-3 4h-2l-2 4-3 3-2-5-1-14-6-21-7-17-10-16-14-18-12-14-10-11-8-7-16-16-11-14-10-16-7-14-8-20-3-1-3 7-6 9-4 11-7 14-6 5-8 5-5 4-10 3h-8l-6-2 1-4 9-5 7-6 2-7-1-5-2-4 7-9 7-7 7-11 7-9 1-2 3-26 3-39-3-3-10-7-6-7-3-7-4-16-3-6v-8l3-4-2-6-6-8v-2l-4-2-5-3v-1h16l11 4 11 9 7 8 9 19 1 3 3 1 2-16 4-18 2-8v-11l-4-10-7-11 3-1 11 4 7 4 7 8 10 17 1 6v9l-2 8-2 10h4l2-4 9-6 4-6 4-17h4l8 8v18l-2 9-1 13-5 9-8 7-9 6-3 1-2 5-1 4 3 9 5 11 7 22 3 25 3 6 8 5 6 7 5 13 14 6 9 7 6 6h9l9 4 8 4 5-1 11-2 8-13-1-7-6-10-3-14v-12l4-15 6-10 1-23 4-14 8-11 3-3 3-14 4-10 5-8 7-10 1-2 1-10 5-12 7-9 3-12 2-10 10-13 4-2v-6l-4-10-13 2-14 9-8 10-5 9-2 6-3-1-4-7h-4l-9 22-4 7-4-1-5-8-1-19-4-6-3-7-1-12-2-5v-3h-38l-23-1-8-1h-10l-17-1 1 5 4 10-1 4-7-1-14-10-13-12-17-17-13-17-8-13-5-10-3-8v-4l6 2 10 7 23 11 18 7 29 6 10 2-1 4-14 7h-2l3 3 18 3 27 1h20l31-4h7l-2-4-11-6-8-13-7-6-7-3h-36l-18 2-17 1 1-4 7-8 9-7 15-9 16-6 21-5 36-3 15-2 2-7 6-9 8-4 9-3 8-1h22l57 3h11l11-7 10-6 18-6 29-9 10-4 5-5h2l-1 11-1 9v13l6 3v4l-11 7-11 8-10 7-6 11 1 7 7 14 6 8 19 9 8 6 5 6-1 4-10 1-9 1-8 4-2 4 9 6 14 8 7 10 4 11v9l-8-1-13-5-7-3h-6l-5 5-3 10 3 9 7 6 13 7 8 9 5 12 1 11-5-1-16-8-11-4h-8l-3 3-2 7v10l4 6 6 4 16 8 6 8 2 5v6h-9l-4-1h-7l-8 4-3 6 1 7 3 12 4 5 10-1 21-6 13-2 10-2 25-6 7-5 6-10 2-6 3-24v-12l-1-9v-15l3-19 8-16 11-13 12-11 14-11 16-13 17-14 20-15 19-13 11-8 13-9 27-18 19-12 26-15 45-27zm-524 69 1 5 6 8 3 2h7l7-4 5-4 1-3-1-1h-6l-7 6-5 1-5-4-4-6zm-12 34-2 3-1 7-3 1-5 1-1 4h-6l-2 1v8h-2l-2-5-4 1v6l1 1 21-1 34-4 13-3-3-6-9-8-10-4-8-2zm714 161-11 5-7 6-2 3v8l4 8 6 3 12 3h10l17-5 9-6 2-6-3-5-11-8-10-5-3-1zm-250 204-14 14-9 7-6 8-2 5-1 15 3 10 5 8 12 6 27 10 15 4 12 3 12 5 7 7 6 14 1 13-33-11-8-3-6-1-7 7-7 11-9 10-9 11-8 8-1 5 3 2h17l26-4 22-3 15-1 3-3v-2l5-2 6-3 15-1 6-4h5l8 6h2v2l8 7 4 4 12 2 19 3 17 4 10 4h6l9-6 4-6 1-10-1-8 6-10 5-5 1-22 2-7-2-4-3-15v-17l-2-3h-2l-2-4-9-10-14-3-9-1-6-3-5 1-6 2-15-1-11-3-3-3-3-1h-9l-2 1-19-1-17-5-5-2-11-1-4-2-7-1-11-6-12-11-4-3-17-6zm-216 48-16 10-11 8-12 5-10 3-20 1-9 7-11 6-5 10-3 10-8 16-4 6h-2l-8-13-7-15-4-11-2-10-4 1-8 8-7 8-9 10-24 24-2 1v2l-4 2-6 7-8 13v2l38 4 24 4 14 1h13l17-5 10-4 16-5 13 1 2-7 5-2 9-4 20-1 7-1 5 2 9 5 3 1 2 4 4 4 5 3 10-2 9-1h12l18 2 26 7h5l8-9 5-3 8-2 5-11 6-5-1-4-8-7-6-5h-14l-17-5-5-3-8-8-5-7-14-7-10-9-6-10-1-5-1-14-4-2-6 1h-8l-6-2z" fill="#5C0211"/>
<path transform="translate(891,813)" d="m0 0 9 2 2 5 4 2 6-5 2-1h8l5 2 4 8 3 3 15 4 12 4 15 10-2 6-5 2-10-1-15-6-8-4-6-2-14 1-18 2-8 4-6 6-1 7h-2l1 6 6-3 3-2 8-1 8 8 10 5 1 4-8 10-2 7 1 11 7-6 9-4h11l2 1h9l15-7 13-4 21-4 19-3h7l6 2h12l10-3 9 1 16 8 10 6 11 5 18-1 5-2 14-1 10 6 2-1 2 1-4-11-6-5-1-2-21-7-14-6-21-2-1-2 26-10 16-8 18-11 12-8 7-5 4 3h17l26-4 22-3h15l-1 6h8l1-1h7l7 3 9 9 2 3-7 2-8 3-17 8-6 5-6 12v3l9-3 4-2 11-1 8 4h9l9-3h17l4 1v3l-16 9-7 6-8 4-8 9-4 9-1 5 29-9 16-3 16-8 13-7 8-2h10l16 7 4 1h10l20-7 11-3h8l12 3 12 6 9 6 2 1h8l8-3 8 1 11 4 4 4h2l-2-8-6-11-11-7-24-11-12-5-4-5-2-4 9-1 23-8 10-5h17l12 3 18 10 12 9 13 12 14 14 9 12 4 11v9l-5 10-8 9-14 9-16 7-17 5-25 5-27 3-36 2-40 2-14 2-15 5-15 3-9 1h-19l-34-2h-20l-19 3-21 7-17 8-17 5-6 1h-21l-19-3-22-5-24-3-16 1-25 3-31 5-11 1h-25l-17-2-24-5-32-3-15 1-18 3-22 5-21 3h-8l-6-1-13-2-20-8-19-8-16-5-6-1h-45l-6 1-17 1h-14l-26-4-4-3-14-3-14-1-43-2-49-3-11-3-16-3-17-5-18-8-12-8-9-9-4-9v-11l4-11 8-12 9-10 5-5 9-8 19-13 15-8 12-4h15l12 5 13 6 4 2-3 5-6 5-3 5-1 4 7-1h20l14 3 4 3-1 7-9 4-8 7-3 6-2 10 4 1 5-5 15-5 7 1 5 3 8 2h12l17-6 13-8 12-6 10-1 10 3h10l12-5 10-4h9l10 4 10 8 8 4 8 2h17l15-7h8l10 6v-7l-2-9-6-4-7-3-11-4-5-2-22-4-12-2-5-2 2-11 5-12 11-20 39 4 24 4 14 1h13l17-5 10-4z" fill="#00A13F"/>
<path transform="translate(1577,262)" d="m0 0h1v10l-2 28v36l1 18 4 33 5 24 5 16 4 8-1 2-16-7-13-10-12-12-7-8-2-1-4 13-13 43 1 8 5 15 2 9v20l-4 16-6 14-7 11-11 14-4 2v2l-11 9-14 10-16 9-16 8-26 10-19 6-26 5-12 1 6 7 17 8 49 28 14 9 15 9 14 10 6 5 6 8 1 7-6 2h-11l-12-6-11-8-9-6h-2l4 13 3 22 1 20-1 19-6 34-6 30-3 9 2 8 5 9 10 5 12 5 19 9 8 6 7 13v6l-3 1-3-3v-2l-9-2-6-2-8 1-4 2h-8l-10-6-8-5-11-4-8-1-10 1-17 4-9 3h-13l-16-7h-18l-12 5-20 10h-6l-1-9-6-5 3-6 11-4 13-3 1-3-13-3-8-1h-13l-9 3h-7l-2-3v-6l-2-6 1-7 9-3h10l20 6 10 4 8 5h6v-2l-5-2-16-8-31-12-4-4 1-2h2l1-4h3l1-9v-6l4-2 1 3 4 2 7 6 6 7 12 8 13 8 10 4 13 1 13-3 12-8 6-5 4-6h16l6-3 6-10 3-7 2-9 3-38-1-21-5-26-6-14-10-13-9-8-16-8-16-5-72-17-19-5-19-7-10-7-10-9-9-11-4-6-4-10v-7l4-3h14l4-2v-5l-5-6-1-2v-18l5-12 5-5h51l22 1 14 2 13 3 19 5 7 1h47l20-2 14-3 14-5 9-7 5-6 1-7-21 5-4 1h-28l-16-4-12-5-6-4-7-6-7-11-3-7-1-5v-17l4-11 6-10 12-11 10-6 12-5 17-3h25l16 3 19 7 7 4h2l9-20 6-13-40 3h-9l-10-3-1-4 12-12 11-9 7-7 8-7 23-23 9-11 11-11 7-8 9-10 10-11 9-11 7-8zm-148 194-11 5-7 6-2 3v8l4 8 6 3 12 3h10l17-5 9-6 2-6-3-5-11-8-10-5-3-1z" fill="#BF1131"/>
<path transform="translate(1320,268)" d="m0 0 3 1-18 8-16 8-21 11-58 27-19 9-19 10-62 30-19 10-21 12-1 3 12-2 16-4 34-7 46-9 22-5 21-3 17-3 16-3 30-5 13-2 22-3 9 1-4 2-11 1v2l-27 6-17 5-25 6-32 8-22 6-38 10-25 7-28 8-36 12-14 6v3l38 1 32 2 13 2 27 3 40 6 39 8 14 3 14 4 14 3 6 3 6 2 16 8 4 3-7-1-30-5-59-10-59-6-13-2-28-1h-59l-12 1 2 3 13 5 17 8 22 12 20 12 11 7 14 9 11 7 10 7 11 7 16 11 12 8 7 6-2 2-16-8-23-10-16-8-17-8-15-6-21-8-27-11-22-8-22-5h-4l-1 5 5 1 7 5 5 6 7 6 7 8 12 14 8 11 10 13 15 23 9 16 4 8v5l-5-3-9-11-12-13-16-17-9-11-8-8-7-8-7-7-22-18-10-9-5 1 1 4 8 30 5 25 4 25 3 24v24l-2 1-2-3-7-26-9-28-10-27-7-20-5-12v-2l-5 5-11 23-14 38-15 45-3 8h-2l-1-19 2-31 3-23 4-16 4-9 1-1v-5l-7 3-13 12-18 18-9 11-8 10-8 11-5 9-3 2 2-9 5-13 8-19 8-15 8-16 2-3 1-5-20 4-25 8-30 14-15 8-32 22-13 8-4 1 1-7 29-29 8-7 7-7 8-6 9-6 23-12 15-7 16-5 6-2 24-4 39-8 16-5 10-6 7-6 9-13 9-16 9-20 8-22 7-14 9-14 7-6 24-11 32-13 29-12 30-12 29-12 29-11 18-7 25-10 30-10 7-2z" fill="#BF1131"/>
<path transform="translate(564,410)" d="m0 0 4 1v19l-6 31-1 9v12l2 9 7 11 8 14 5 15 2 9 1 14 1 2v8l-5 10 1 10 6 16 6 11 6 7v2l4 2 13 11 16 9 16 7 23 8 10 2 12 1 1 1 2 11 4 14 5 9 9 10 8 6v2l-7 2-21 3-11 3-3 1-1 6-3 8-8 16-7 13-3 3-1-1-2-12-3-15-5-13-5-11-3-6-8-12-5-6v-2h-2l-2-5-3 1-8-10-9-10-7-8-10-9-15-15-11-14-10-16-7-14-8-20-3-1-3 7-6 9-4 11-7 14-6 5-8 5-5 4-10 3h-8l-6-2 1-4 9-5 7-6 2-7-1-5-2-4 7-9 7-7 7-11 7-9 1-2 3-26 3-39-3-3-10-7-6-7-3-7-4-16-3-6v-8l3-4-2-6-6-8v-2l-4-2-5-3v-1h16l11 4 11 9 7 8 9 19 1 3 3 1 2-16 4-18 11-7z" fill="#BF1232"/>
<path transform="translate(1129,649)" d="m0 0 7 1 5 3h22l10 2 1 2-3 5-4 5h-2l-2 4-1 4h-2l1 3-7 6-5 10-1 15 3 10 4 7 12 6 27 10 15 4 12 3 8 3-1 3 4 1 7 7 3 7 2 9v5l-9-1-26-9-13-1-2 4-7 9-6 9-15 15-7 8-8 7-10 8-10 7-11 6-15 8-12 5-21 6h-3l2 4 3 2 21 1 13 4v4l-3 2 3 2-1 4v2l1 1-1 7-7-1-9-2-3-3-19-9-12-5h-11l-4 2h-30l-22 2-18 4-13 5-8 2v2l-7 1-1-1-1-14-10-1-1-5 5-3 3-2h5v2l14 2 15-2 20-6 5-1v-2l-13 2-4 2-19 4-7-1-8-4h-8l-14 7h-6l-6-3-6-2 2-4 7-10 4-9 9-1 10 4 6 3v2l6 1 8 3h11l15-4 14-6 28-14 15-3h12l10 6 7 3h12l11-9 12-9 12-6 17-12 13-10 8-11 3-7 1-9-4-2-11-4-8-2-6-1-20-2-11-3-14-7-7-6-3-4-5-17v-17l6-19 3-10 6-12 2-1 17-1 14-3z" fill="#BF1131"/>
<path transform="translate(902,193)" d="m0 0h2l-1 11-1 9v15l-2 3 2 1v3l-9 4-4 4-8 4-9 7-4 8-2 12-4 3-15 2h-15l-13-3 1 3 6 3 1 1v5l-4 3 1 5 9 3 4 4-1 3-11 6v4l10 5 2 6-5 2h-5l3 14 1 3h-3l-8-5-5 1-7 11-1 3-4-2-3-5v-2h-3l-2 4-8 11-3 1-9-19-9-16-6-16-8-7-8-3-4-4-12-4h-15l-10 5-5 2-5 4-6 3-8 1h-10l-2-3v-5l-3-1-3-4 1-3 4-4 4-7 1-9h-2l-4 10-6 9-14-2h-49l-16 2 3-3 8-7 10-7 17-9 18-5 16-3 2-1h7v-2l31-3 4-1 2-7 6-9 8-4 9-3 8-1h22l57 3h11l11-7 10-6 18-6 29-9 10-4zm-175 68 1 5 6 8 3 2h7l7-4 5-4 1-3-1-1h-6l-7 6-5 1-5-4-4-6z" fill="#BF1131"/>
<path transform="translate(872,664)" d="m0 0 4 1v18l-5 19-6 11-1 5v12l4 17v8l-6 18-5 11-2 4-1 3-3-1-8-13-7-15-4-11-1-10-5 3-14 15-7 8-26 26h-2v2l-7 6-11 17-4 2-6 9-7 14-5 15 1 5 6 3 1 1 27 3 1 1 7 1 1 5-1 5v1l1 9-2 4-5 1h-16l-9-4-16-10-7-2h-16l-15 7-5 1h-9l-8-3h-7l-7 3-9 3-5 4-11 6-5 3-10 3h-8l-11-4v-15l-7-5-1-6 8-6 7-4 10 1 13 4 7 1-2-3-19-6h-11l-10 5-2 2h-5l-2-7 2-8 5-9 9 1 10 4 4 2 9-1 15-3 34-9 21-10 9-7 8-10 2-2 9 6 7 1 6-3 9-15 11-23 28-56 7-15 3-6 3 1 4 8 2 1v-6l-4-7v-7l-5-3 2-5 5-3h7l1 1-1 11 2 6 4 2 1 2v6l-5 6 5-1 3-3v-14l12-5 3 1v2l6-4 6-7 12-5 8-11z" fill="#BF1231"/>
<path transform="translate(865,278)" d="m0 0 5 1 7 11 4 5 10 7 12 6 9 7v3l-2 1 1 2-15 1-8 4-2 4 9 6 14 8 7 10 4 11v9l-8-1-13-5-7-3h-6l-5 5-3 10 3 9 7 6 13 7 8 9 5 12 1 11-5-1-16-8-11-4h-8l-3 3-2 7v10l4 6 6 4 16 8 6 8 2 5v6h-9l-9-2v-1h5l-1-2-8 1-7 4h-2l-3 6v8l5 17v2l-15 6-13 6-7 1-7-11-4-9-7-18-6-20-4-16-5-33v-54l7-14 3-3 5 1 8 6 2 2h4l-1-6-4-12 1-5 12-1v-4l-3-6-8-5-2-2 12-8v-4l-10-6-4-3 1-6 3-3 16-3 12-2z" fill="#BF1232"/>
<path transform="translate(1373,347)" d="m0 0h6l-1 2-10 4-15 10-4 3h-2l-1 3-8 7-8 9-10 14-8 16-3 13-1 22 3 16 2 6-9-1-31-10-39-9-44-8-30-5-46-5-48-2-5-1 1-3 30-10 26-8 42-11 31-8 32-8 30-8 34-8 24-6 41-10z" fill="#C01232"/>
<path transform="translate(1419,231)" d="m0 0 2 1-12 11-12 12-10 13-7 8-6 11-3 10v13l3 7 9 10 8 5 1 3-8 2-39 6-40 6-41 7-54 10-56 11-29 5-28 6h-4v-2l21-12 23-11 17-8 19-10 22-10 15-7 19-9 15-7 16-8 13-6 16-8 23-11 16-8 35-16 16-7 16-8 9-4 8-1 5-3z" fill="#C01232"/>
<path transform="translate(1577,262)" d="m0 0h1v10l-2 28v36l1 18 4 33 5 24 5 16 4 8-1 2-16-7-13-10-12-12-7-8-2-1-4 13-13 43 1 8 5 15 2 9v20l-4 16-6 14-7 11-11 14-4 2v2l-11 9-14 10-3-1 11-8 7-5 10-10 6-7 9-14 8-16 5-16v-25l-7-20-4-8-9-10-12-10-13-8-17-6-14-3-9-3v-1l15 1 16 5 13 5 5 3h2l9-20 6-13-40 3h-9l-10-3-1-4 12-12 11-9 7-7 8-7 23-23 9-11 11-11 7-8 9-10 10-11 9-11 7-8z" fill="#BF1231"/>
<path transform="translate(1066,459)" d="m0 0h32l41 2 55 5 49 7 35 6 22 5 1 3-15 2-15 6-15 8-10 7-8 8-6 9-8 17-3 17h-4l-11-9-17-12-11-8-17-11-11-7-15-10-48-28-14-7-11-6v-3z" fill="#C01232"/>
<path transform="translate(1242,207)" d="m0 0h1l-1 10-3 15-1 9v13l4 11 3 5 7 6 8 4h6l-3 3-12 6-63 24-37 15-17 7-16 6-27 11-13 6-16 6-9 4-4-1 8-10 36-36 11-9 7-6 11-9 26-20 34-25 16-12 21-16 16-11 4-1 2-4z" fill="#C01232"/>
<path transform="translate(1237,204)" d="m0 0 2 1-15 11-5 3h-2v2l-16 11-14 11-14 10-17 12-12 9-15 12-14 11-10 9-10 8-12 12-8 7-8 8-7 6-9 11-11 13-9 13-8 16-6 14-6 16-9 20-8 13-10 15-6 6h-2l1-8 2-9v-36l-2-3v-15l3-19 8-16 11-13 12-11 14-11 16-13 2-2 7-3 11-9 15-10 12-9 10-7 14-10 8-6 5-3 11-7 8-6 11-6 19-12 14-8 16-9 10-6 15-8z" fill="#BE1131"/>
<path transform="translate(751,602)" d="m0 0h6l-1 7-2 6 1 1 12 1 1 4-4 11-3 14v14l3 9-1 5-6 5-4 8-3 9v8l7-18 7-8 7 1 10 6 10 4 1 5-2 9-9 18-9-1-10-4-8-3-5-2v2h-10l-11-1-12-12-7-10-6-13-3-8v-7l1-4-11-21-4-10-1-8 8-15 1-1h8l9 2 18 1 20-3z" fill="#C01232"/>
<path transform="translate(1039,496)" d="m0 0 8 2 18 7 13 4 50 20 32 14 24 11 19 10 17 9v3l-36 7-4 2-12 3-19 8-10 7h-2v2l-5 5-7 9-3-1-12-25-5-10-9-15-9-13-8-10-10-14-13-14-7-8-11-11z" fill="#C01232"/>
<path transform="translate(497,275)" d="m0 0 6 2 10 7 23 11 18 7 29 6 10 2-1 4-14 7h-2l3 3 18 3 27 1h20l17-2h23l21-2 19-1 17-4h15l5 5 4 8v3l-2 1h-7l-3-8h-3l-1 4-13 2-2 3-1 3v-2h-3l-1-2h-4l-1 7h-2l-1-2h-7l-2 7h-2v-4l-6-2h-4v6l-3 1-1-7h-7l-3 7-4-6h-5l-1 5-4 1-45 1h-19l-8-1h-10l-17-1 1 5 4 10-1 4-7-1-14-10-13-12-17-17-13-17-8-13-5-10-3-8z" fill="#BF1131"/>
<path transform="translate(1009,513)" d="m0 0 6 4 8 7 11 9 18 18 8 10 14 15 9 10 7 8 15 16 9 9 3 5v3l-3 1-42 2-15 4-9 6-11 9-7 5h-2l-1-31-2-23-6-37-5-22-3-16-3-11z" fill="#C01232"/>
<path transform="translate(893,538)" d="m0 0h9l-3 8-10 19-13 31-9 21-5 6-13 5-12 7-8 7-7 6-3-1v-37l-17 3h-39l1-4 7-7 12-8 14-10 13-8 19-11 22-10 16-8 19-7z" fill="#C01232"/>
<path transform="translate(1202,584)" d="m0 0h4l4 16 8 14 9 10 11 10v6l-6 10-7 8-11 7h-12l-20-8-7-4-6-2h-21l-10-5-7-7-5-9v-5h2l2-5 8-10 10-8 8-5 17-7 18-5z" fill="#C01232"/>
<path transform="translate(980,530)" d="m0 0h2l8 20 14 41 11 34 5 20v5l-5 1-11-5-13-4-8-1h-11l-13 3-10 4-12 8-2-1 1-9 12-37 12-34 11-28z" fill="#C01232"/>
<path transform="translate(934,548)" d="m0 0h2l-1 14-2 13-3 30-1 55-1 3-6-1-10-5-8-3-12-1-9 2-8 2v2l-8 4h-3l-1-17 3-12 9-15 7-9 13-19 8-10 9-10 9-11 11-11z" fill="#C01232"/>
<path transform="translate(691,538)" d="m0 0 12 5 14 6 15 3 25 2 7 1v34l-3 6-9 4-13 4h-24l-16-4-5-1-8-15-3-7h-1l-1-5v-12l2-8h2l3-9z" fill="#BF1131"/>
<path transform="translate(794,616)" d="m0 0h22l1 3v38l7-6 13-11 10-7 8-4 5 1v14l-1 4-16 7-5 9h-8l-3-2-3 9-3 5-7 3h-8l-2-2h-9l-2 5-3 2-5-1-14-9-4-5-3-10v-14l4-14 7-14z" fill="#C01232"/>
<path transform="translate(958,648)" d="m0 0 5 1 4 13 2 14v14l-4 11-7 9-10 6-5 4-8 4-8 5-9 3-14 1-1-3 3-19 1-7v-41l1-2 6 1 10 7 8 7h2l2-8 3-6 1-4 16-9z" fill="#C01232"/>
<path transform="translate(1011,695)" d="m0 0h9l23 3 24 5 1 1 2 21 3 11-3 5-12 6-19 5-7 2-6 1v-2l3-1-12-1-9-7-10-10-4-11v-8l6-12 6-7z" fill="#C01232"/>
<path transform="translate(705,488)" d="m0 0h2v2l4 1 14 7 13 4 14 2 15 1 1 1-1 14-3 30-3 1-25-1-15-3-13-5-13-6-1-2v-14l2-18 6-10h2z" fill="#C01232"/>
<path transform="translate(533,380)" d="m0 0 5 1 12 4 8 7 7 11 6 10 1 6v9l-2 8-2 10h4l2-4 9-6 4-6 4-17h4l8 8v18l-2 9-1 13-5 9-8 7-9 6-3 1-2 5-1 4 3 9 5 11 7 22 2 16v7l-4-4-1-14-5-19-8-16-10-16-1-7v-12l3-20 4-20v-19l-9 2-10 5-5 3 1-8v-11l-4-10-7-11z" fill="#620413"/>
<path transform="translate(890,657)" d="m0 0h13l2 6v36l-2 15-5 16-6 8-8 1-12 7h-2l-4-18v-7l7-18 4-15 2-26 1-2z" fill="#BF1131"/>
<path transform="translate(972,644)" d="m0 0h13l9 2 12 5 12 6 2 4-1 8-10 16-7 11-7 8-5 3-17 1-5-1 1-5 4-14v-7l-4-20-3-9v-6z" fill="#C01232"/>
<path transform="translate(722,447)" d="m0 0 6 1 13 8 15 7 14 4 3 3-2 16-3 15-1 1h-10l-20-3-13-5-9-6-3-4-1-11 3-11 4-7z" fill="#BF1131"/>
<path transform="translate(1278,648)" d="m0 0 14 2 26 7 1 5-2 9-6 12-10 11-1 4-8 2-19-1-17-5 3-11 3-6 5-5 7-14 3-9z" fill="#BE1131"/>
<path transform="translate(1574,291)" d="m0 0h1l1 9v36l1 18 4 33 5 24 5 16 4 8-1 2-16-7-13-10-12-12-7-8-2-1-4 13-13 43 1 8 5 15 2 9v20l-4 16-6 14-7 11-11 14-4 2v2l-11 9-14 10-3-1 11-8 7-5 10-10 6-7 9-14 8-16 5-16v-25l-7-20-4-8-9-10-12-10-13-8-17-6-14-3-9-3v-1l15 1 16 5 13 5 5 3h2l9-20 6-13-13 1h-14v-1l9-2 18-1 5-12 10-26 4-11 3-1-1 9-13 35-7 18-13 26h2v2l5 2 14 14 1 4h2l3-11 10-30 9-29 6-35 2-7h1v12l-3 23-4 18 1 5 20 20 10 8 8 3-4-16-5-25-5-41v-48z" fill="#5F0413"/>
<path transform="translate(503,284)" d="m0 0 21 9 14 5 10 4 29 8 5 3v2l-20 11-5 1 4 10 8 13 2 5v5l-6-1-13-11-5-5v-2l-3-1-7-8-13-14-10-13-10-17z" fill="#C01232"/>
<path transform="translate(756,340)" d="m0 0h12l5 6v5h-22l-11 4-14 8-10 11-4 5-3 2-2 3-4-3 4-1-1-5-5-2-3 9-7 20-3 5-3-3-4-22-5-13-1-6v-9l1-1 41-2 9-2 16-6z" fill="#C01232"/>
<path transform="translate(1243,638)" d="m0 0 8 1 20 7 2 1-1 9-8 16-6 9-6 11h-7l-9-3-7-1-11-6-8-10v-2l10-4 8-4 9-12 4-8z" fill="#BF1131"/>
<path transform="translate(739,412)" d="m0 0 6 1 15 7 21 6-1 10-3 15-2 9-1 2-3 1v3l-14-6-32-16 2-5 1-10 2 1 7-14z" fill="#C01232"/>
<path transform="translate(1322,660)" d="m0 0h8l15 3 12 3v8l-6 21-3 6h-3v2l-5 3-11 1-12-2-9-3-3-4 3-6 7-11 4-10 2-10z" fill="#BC1231"/>
<path transform="translate(1476,840)" d="m0 0h17l12 3 7 4v2h-2v2h-4l-1-2-13-4v-2l-9 2-2 2-5 1-2 3 6 1-2 6-4 2h-3l2 5h2l1 4 3 2 1-2 2 2v3h2l2 5 2 1 1 4 3 3 5 10 1 5-1 2h2l-1 4-4 1-5-3-4-3-3-1v2l-9 2-9-1-1-2-12-1-6-4-9 1-5-3-5-1v-2l-11-2v-2l-3-1 1-3-10 1 4-2 10-1 12 2 14 7 9 6 2 1h8l8-3 8 1 11 4 4 4h2l-2-8-6-11-11-7-24-11-12-5-4-5-2-4 9-1 23-8z" fill="#00943C"/>
<path transform="translate(724,974)" d="m0 0h9l7 1 2 1 16 1 9 2 17 5 15 8 7 3 20 4 1 1h13l5 1 15-4 3-1 14-1 1-2 11-1 13-2h25l13 2 19 2 3 2 13 1 5 1 18 1h14l9 1v-2l13-2 11-1 5-1 2-1 24-1h9v-2l5 1-1 3-30 3-17 3-19 3-11 1h-25l-17-2-24-5-32-3-15 1-18 3-22 5-21 3h-8l-6-1-13-2-20-8-19-8-16-5-6-1h-55v-1l14-4 5 1 4-2z" fill="#00953C"/>
<path transform="translate(759,373)" d="m0 0 5 2 10 5 10 3 8 1-1 7-7 26-2 5-16-3-16-8-5-3-4-1 4-21 7-9z" fill="#C01232"/>
<path transform="translate(1228,753)" d="m0 0 5 1 8 8 6 14v13l-7-1-11-4-15-5-8-3-6-1-7 8-8 11-12 14-9 10-6 7-10 7-15 10-21 12-25 10-7 3 21 2 20 8 15 5 5 6 3 2 3 11-5 1-9-6-14 1-5 2h-8l1-8-2-2 2-2v-3l-3-3 3-3 1-2-13-3-21-1-5-4v-3l24-7 12-5 19-10 14-9 11-8 8-8 7-6 7-8 10-10 7-11 8-10 7-1 8 2 27 9 6 1-3-14-4-8-6-6-3-1z" fill="#5E0312"/>
<path transform="translate(1073,743)" d="m0 0 6 1 15 9 3 1-1 5-18 18h-17l-15-3-12-6-5-8-1-3 20-4 18-6z" fill="#C01232"/>
<path transform="translate(645,256)" d="m0 0h16v1l-25 5-18 5-19 10-10 8-6 5-1 1 14-2h49l14 2 6-9 3-9 2-2 2 2-1 9-6 10-3 2 2 4 3 3 2 7h10l10-2 8-5 2-2 14-6h15l12 4 4 4-10-3-8-2h-11l-2 9-4 2h-5l-1 4-8 1v8h-2l-2-4h-4l1 6 21-1 18-2h6l-1 3-8 2-28 2-12 1h-18v-2l16-1-2-4-11-6-8-13-7-6-7-3h-36l-18 2-17 1 1-4 7-8 9-7 15-9 16-6z" fill="#600413"/>
<path transform="translate(758,818)" d="m0 0 39 4 9 2 3 2-1 5-4 1-11-2h-7l-6 5 1 4-5 1-9 2h-3v-3h-2v2h-3v6l-4-2h-3l1 2 4 1v2h-2v2h-2l-2 2-2 1-1 2v4h11l8-2 4 4 4 2 7 1 6 4 13 4 9 6 4 3 1 6v11l-3 2-5-1-3-4-5-1-6 2 1-3-8 1 3-3 3-1h8l10 6v-7l-2-9-6-4-7-3-11-4-5-2-22-4-12-2-5-2 2-11 5-12z" fill="#00943C"/>
<path transform="translate(1158,824)" d="m0 0 4 3 19 1-1 3-9 3-18 4-7 3-8 3-4 6h-2l-1 2-4 4-1 6-8 4v-2h-6l-3 1v2l4-1v2l2 1v3 2l10 2 11 4 8 7v2h2l3 8v8l-2 2-5-1-5-5-4-2v-2l-7 2-1 2-10-1-7 2h-11l-12-5-10-5-8-3-10-6-7-3v-1l9 1 16 8 10 6 11 5 18-1 5-2 14-1 10 6 2-1 2 1-4-11-6-5-1-2-21-7-14-6-21-2-1-2 26-10 16-8 18-11 12-8z" fill="#02953D"/>
<path transform="translate(1060,636)" d="m0 0h11l1 1v7l-4 10-6 8-3 3h-2l-2 4-9 7-12 6-11 4h-8l1-6 5-10 3-9 10-4 14-13 10-7z" fill="#C01232"/>
<path transform="translate(945,801)" d="m0 0h2v2l5 1 8 5 8 7v2l6 3v2h2v2l4 2 11 7 8 3 1 4-8 4-9 4-4-1-3-5-15-8-16-5-11-3-3-3 6-4h2v-8l3-9z" fill="#C01232"/>
<path transform="translate(1089,631)" d="m0 0h30l8 8 1 6-8 7-8 3-6 1h-27l-5-2-1-4 3-15 3-3z" fill="#C01232"/>
<path transform="translate(1283,865)" d="m0 0h13l17 3 5 2-2 4-16 4-8 3-2 5 6 5 1 6-1 3 8-2 14-7 16-7h18l16 7h13l12-4 3 1-16 6h-10l-11-4-9-4h-10l-10 3-20 11-10 4-13 2-19 6-10 2 1-8 5-9 7-7 11-6 7-6 11-6h2v-3l-21-1z" fill="#5C0211"/>
<path transform="translate(1227,820)" d="m0 0h15l-1 6h8l1-1h7l7 3 9 9 2 3-7 2-8 3-17 8-6 5-6 12v3l9-3 4-2 11-1 8 4h9l9-3h17l4 1v3l-16 9-2 1v-2l-12 1-1 2h-6-4l-8-4-3-1 1-6 1-1h-6l-12 7h-7l2-14 6-8 6-5 18-8-8-4-7-2 1-4-1-3-3-1-2-1v-4l-16-1 1-2z" fill="#00943C"/>
<path transform="translate(1443,780)" d="m0 0h1v9l-8 42-4 11 2 10 5 9 10 5 12 5 19 9 8 6 7 13v6l-3 1-3-3v-2l-9-2-6-2-8 1-4 2h-8l-10-6-8-5-11-4-8-1-10 1-7 2-4-1 12-5h13l16 5 14 7 2 2h6l2-10 2-6-1-3-7-3-10-4-11-7-5-6v-13l7-30 5-21 1-10z" fill="#5C0211"/>
<path transform="translate(497,275)" d="m0 0 6 2 10 7 23 11 18 7 29 6 10 2-1 4-14 7h-2l3 3 7 2v1l-25 1 9 17 2 2 1 4 5 12-1 4-7-1-14-10-13-12-17-17-13-17-8-13-5-10-3-8zm6 9 2 6 9 15 13 16 15 16 3 4h2l2 4 7 7 11 8h4l-1-7-12-22-1-4 9-3 16-9-1-3-11-4-25-7-15-6-13-5-11-5z" fill="#600613"/>
<path transform="translate(757,817)" d="m0 0 1 2-13 25-4 14v3l7 2 21 3 14 3 6 3 8 3 10 5 2 2 2 9-1 7-10-5h-8l-15 7h-17l-10-3-10-6-8-6-9-4 3-1 9 3 17 11 6 2h16l5-1 1-9v-3h-2l1-2 1-4v-4l-7-1-1-1-27-3-5-3-4-3 1-8 7-18 7-11 3-5z" fill="#5D0211"/>
<path transform="translate(1069,658)" d="m0 0h10l1 1-1 9-10 29-2 2h-7l-22-4-16-3 1-3 14-5 13-7 10-8z" fill="#C01232"/>
<path transform="translate(645,610)" d="m0 0 7 1 5 5 10 5 2 9v22l-9-2-18-7-10-5 1-5 7-18 4-1-1-3z" fill="#C01232"/>
<path transform="translate(1100,757)" d="m0 0h9l22 3 1 4-7 11-7 6-10 6-8 3-18-5-2-1 1-4 12-12 6-8z" fill="#C01232"/>
<path transform="translate(1361,668)" d="m0 0 10 2 16 8 1 7-11 20-2 4-6 1-16-4-2-2 4-13 4-14 1-8z" fill="#BF1232"/>
<path transform="translate(1092,794)" d="m0 0h9l24 3 6 2v3l-19 12-10 6-3 1h-7l-10-5-3-3-3-1 1-6 1-2 5-2 4-2 2-4z" fill="#BF1131"/>
<path transform="translate(732,772)" d="m0 0 5 1 8 4 6 2-3 9-8 18-5 7-9 4-8-5 1-13 3-14 4-6z" fill="#C01232"/>
<path transform="translate(994,815)" d="m0 0h12l18 2 26 7-1 2-15 3-23 7-5-1-14-4-11-6-6-5 3-2 7-2z" fill="#01953C"/>
<path transform="translate(576,444)" d="m0 0 6 1 3 2v2l8 2 4 3-2 9-7 8-10 8-8 7-4 4-3-8v-9l3-15 6-11z" fill="#C01232"/>
<path transform="translate(1392,686)" d="m0 0 4 1 8 9 7 14 2 11-5 3-5 1h-9l-16-12 1-7 9-14z" fill="#C01232"/>
<path transform="translate(614,593)" d="m0 0 5 2 13 9 4 4v8l-6 16-5 1-10-6-9-8-5-6 2-4 3-4 2-5z" fill="#C01232"/>
<path transform="translate(478,411)" d="m0 0h16l11 4 11 9 7 8 9 19 1 3 3 1 2-16 3-15 2-1v11l-3 14v8l3 10v10l-1 2-3-1-4-8-8-21-8-16-5-3-2 4-2 2-5 1h-8l-7-14-3-3v-2l-4-2-5-3z" fill="#5E0513"/>
<path transform="translate(1412,726)" d="m0 0 3 1 1 5 1 21-4 4-13 5-2 3h-3l-3-6-3-15v-12l1-4h13z" fill="#BF1131"/>
<path transform="translate(748,740)" d="m0 0 17 3 2 1-1 7-8 16-5 9-8-2-6-4-5-5v3h-2v-12l3-2 3-5 5-5z" fill="#C01232"/>
<path transform="translate(1137,763)" d="m0 0h9l8 4 2 2-2 9-8 11-7 6h-12l-17-4 3-3 7-4 10-10 6-10z" fill="#C01232"/>
<path transform="translate(886,320)" d="m0 0 9 1-1 2-7 4v4l10 6 12 7 7 10 4 11v9l-8-1-13-5-7-3h-6l-5 5-3 10 3 9 7 6 13 7 8 9 5 12v3l-4-2-4-9-5-6-11-7-8-6-9-9-3-11h2v-3l3-3 4-6 4-3h10l20 7 3 1-1-9-6-9-11-8-7-4-8-5-2-3 1-7z" fill="#620514"/>
<path transform="translate(517,546)" d="m0 0 3 4-1 9-10 13-8 11-4 3-2 4-2 1 1 5 9 6 5 8 1 4-9 5-6 5-10 3h-8l-6-2 1-4 9-5 7-6 2-7-1-5-2-4 7-9 7-7 7-11 7-9 1-2 1-9z" fill="#600513"/>
<path transform="translate(608,824)" d="m0 0 16 7 12 5 15 5v3l-11 3-13 3-7 1-21-6-8-1 1-4 7-3 3-3 2-6z" fill="#C01232"/>
<path transform="translate(930,826)" d="m0 0 4 3 15 4 12 4 15 10-2 6-5 2-10-1-15-6-8-4-6-2-14 1-17 1 6-7h3v3l4 1 11-3v-3l6-2v-2h2z" fill="#01943C"/>
<path transform="translate(1574,291)" d="m0 0h1l1 9v36l1 18 4 33 5 24 5 16 4 8-1 2-16-7-13-10-12-12-7-8-2-1-3 10-2 2-1-2 9-31 5-31 2-7h1v12l-3 23-4 18 1 5 20 20 10 8 8 3-4-16-5-25-5-41v-48z" fill="#630313"/>
<path transform="translate(764,354)" d="m0 0h11l5 5 5 10v2h2l1-5 7-10 1-2h3l4 7-1 6-5 8-3 5-2 1h-7l-10-4-9-5-4-6-3-9 1-2z" fill="#C01232"/>
<path transform="translate(1224,984)" d="m0 0h9l-4 4-12 5-13 6-17 5-6 1h-21l-19-3-22-5-24-3-3-2 4-2 16 1 2 1 13 2 8 2 9 1 4 1 3-2 13 1 17 2 3 1 1-3 7 1h3l2-2 12-5 12-6z" fill="#00953C"/>
<path transform="translate(716,257)" d="m0 0h31l4 2 12 3 2 1h12l9-3 5-1h7l-3 3-13 4-18 2-6 3-10 7-5 2h-8l-9-9-4-7v-2l-5-2-3-2zm11 4 1 5 6 8 3 2h7l7-4 5-4 1-3-1-1h-6l-7 6-5 1-5-4-4-6z" fill="#5B0F18"/>
<path transform="translate(946,799)" d="m0 0 1 2-5 2-1 6-2 11-7 4-2 2-4-8-4-1h-8l-9 6-5-4v-4h4l1-5 4-4 11-5 20-1z" fill="#5F0A15"/>
<path transform="translate(1446,457)" d="m0 0 9 2 11 6 9 9 4 8 1 4v17l-4 14-5 8-7 7-14 8-14 4-13 2-12 1-28-1-10-1 2-2h34l20-2 14-3 14-5 9-7 5-6 1-7h-6l5-4h2l2-9v-15l-1-3-4 1-9 3v-2l6-4 1-5-3-5-10-7-9-5z" fill="#5F0513"/>
<path transform="translate(1276,554)" d="m0 0 5 1 14 7 10 8 12 11 16 17 7 7 7 8 8 7 3 1h10l17-2h5l-4 2-21 3h-2l5 7-6-2-12-6-31-31-5-6-5-5-13-11-15-9-8-3 1-3z" fill="#5C0311"/>
<path transform="translate(588,570)" d="m0 0h6l8 6 4 5v2l3-1 2 8-7 10-4 8-4-1-9-16-3-9v-7z" fill="#C01232"/>
<path transform="translate(1414,761)" d="m0 0 3 1v17l-1 9-6 5h-12l-2-1-1-4v-20l8-3z" fill="#C01232"/>
<path transform="translate(533,380)" d="m0 0 5 1 12 4 8 7 7 11 5 9-6-1-13 5-8 5 1-8v-11l-4-10-7-11z" fill="#600714"/>
<path transform="translate(1308,824)" d="m0 0 8 1 19 3 17 4 10 4 6 1-5 4-8 3-5 1h-7l-13-4-10-5-11-8z" fill="#01953C"/>
<path transform="translate(1394,796)" d="m0 0 17 2 1 2-5 13-5 8-4 2-10-1-4-5v-11l4-6z" fill="#C01232"/>
<path transform="translate(671,620)" d="m0 0h8l4 6 5 14 6 14-1 3-13-1-8-3-1-20z" fill="#C01232"/>
<path transform="translate(1513,848)" d="m0 0 10 5 12 9 13 12 14 14 9 12 4 11v9l-5 10-8 9-14 9-6 3-4-1 5-5 10-6h2l1-3 8-7 6-9 1-4h-2l-3-13-2-6-5-5-3-1-4-7-5-2-6-12-6-4-9-8-12-7z" fill="#00953C"/>
<path transform="translate(1577,262)" d="m0 0 1 4-7 8h-2l-2 4-4 5h-2l-2 4-7 7-9 11-23 23-6 7-7 9-6 6h-2v2l-8 7-10 9-9 9-6 8-5 5 2 4 7 2-3 2-6-1-9-3 1-4 11-11 11-9 7-7 8-7 23-23 9-11 11-11 7-8 9-10 10-11 9-11 7-8z" fill="#650615"/>
<path transform="translate(533,559)" d="m0 0h3l6 12 8 21 8 16 11 17 5 7v2h2v2l5 2 7 6 9 11 8 7v2l4 2 6 8 1 3-4-2-12-14-15-14-13-13-11-14-10-16-7-14-8-20-3-1-3 7-3 4-3-1 6-11z" fill="#640414"/>
<path transform="translate(880,218)" d="m0 0h5l-1 4-3 4h-2v2l-16 10-20 12-11 8-2 4 17 4v2l-12-1-7-3-2-2 1-5 6-8 20-12 8-6-2-3 6-4 9-2z" fill="#5C0211"/>
<path transform="translate(875,416)" d="m0 0 8 1 26 9 5 1 1 7-5-1-16-8-11-4h-8l-3 3-2 7v10l4 6 6 4 16 8 6 8 2 5v6h-9l-2-2 5-1v-7l-4-5-8-4-7-3-8-6-5-7-1-9 2-9 4-8z" fill="#5D0B15"/>
<path transform="translate(645,256)" d="m0 0h16v1l-25 5-18 5-19 10-10 8-6 5-1 1 14-2h49l3 1-1 2h-36l-18 2-17 1 1-4 7-8 9-7 15-9 16-6z" fill="#620513"/>
<path transform="translate(803,374)" d="m0 0h1v41l-7 5-4-1-5-3 1-8 5-18 7-14z" fill="#C01232"/>
<path transform="translate(752,718)" d="m0 0 8 1 13 4 5 1-1 5-3 7-4 2v3l-9-1-15-4 3-4 3-10z" fill="#BF1131"/>
<path transform="translate(1071,815)" d="m0 0h7l5 3 7 9-6 7-5 2h-6l-12-6-3-2 2-7 4-1 2-4z" fill="#C01232"/>
<path transform="translate(1415,416)" d="m0 0h7l-3 2-16 6-12 7-10 9-4 5-5 15v18l3 10 7 9 5 5 6 5 13 7-3 1-12-5-6-4-7-6-7-11-3-7-1-5v-17l4-11 6-10 12-11 10-6 12-5z" fill="#630815"/>
<path transform="translate(622,685)" d="m0 0h2l2 5h2l8 11 8 12 5 13 5 12 2 7 2 10 2 12 3-3 16-32 3-10 6-3 20-4h7l1 2-23 4-8 4-4 11-7 15-6 11-3 4h-2l-2 4-3 3-2-5-1-14-6-21-7-17-10-16-10-13z" fill="#640414"/>
<path transform="translate(828,732)" d="m0 0 4 4 6 16 10 28 1 6-4-5-9-19-4-11-1-10-5 3-14 15-7 8-26 26h-2v2l-6 5h-2l2-4 4-4h2l2-4 3-3h2v-2l5-4h2l2-4 10-11h2l2-4 13-16 5-8h2z" fill="#620513"/>
<path transform="translate(548,851)" d="m0 0 7 1 1 2-5 5-6 7-2 6 7-1h20l14 3 4 3-1 7-9 4-8 7-3 6-1-3 4-8v-8l3-3 2-4-7-1-7 2-2-1v-2l-7 2-3 2h-8l-3-3 2-5 7-10v-6z" fill="#00943C"/>
<path transform="translate(1186,230)" d="m0 0 2 1-5 5-11 6-17 11-14 8-8 6-9 6-11 7-13 10-6 4-17 12-11 8-14 10-5 4-2-1 14-12 19-14 19-13 11-8 13-9 27-18 19-12z" fill="#670716"/>
<path transform="translate(699,822)" d="m0 0v3l-9 7-12 6-7 2h-14l-11-3v-2l22-6 28-6z" fill="#00953C"/>
<path transform="translate(1532,478)" d="m0 0 2 4 1 5v20l-4 16-6 14-7 11-11 14-4 2v2l-11 9-14 10-3-1 11-8 7-5 10-10 6-7 9-14 8-16 5-16v-28z" fill="#660515"/>
<path transform="translate(715,881)" d="m0 0h9l10 4 10 8 8 4 8 2h17l6-3 3 1-11 6h-18l-10-2v-1l-8-1-5-3-6-3-5-2-1-4-5-2-8-2z" fill="#01943C"/>
<path transform="translate(729,227)" d="m0 0h22l43 2 9 1v1h-71l-17 3-6 2-1 3-4 2-4 7-3 3 1-7 6-9 8-4 9-3z" fill="#6A0717"/>
<path transform="translate(857,652)" d="m0 0 3 2v15l-5 6-4 3-4-1-4-9 1-8 4-4z" fill="#C01232"/>
<path transform="translate(1435,690)" d="m0 0 4 1 21 13 10 7 1 3-5-1-14-9-10-7h-2l4 13 3 22 1 20-1 19-2 3v-31l-2-19-4-19-4-10z" fill="#640615"/>
<path transform="translate(1156,679)" d="m0 0 2 1-6 7-3 7-1 15 3 10 4 7 12 6 27 10 15 4 12 3 4 3-11-1-4-2-12-3-10-3-10-4-16-6-8-5-6-7-4-11-1-9 4-13 5-6h2v-2z" fill="#5C0A15"/>
<path transform="translate(575,818)" d="m0 0 1 2h8l11 5 4 1 1 3-6 7-5-2-2-5h-13l-6 4h-3l1-6 6-7z" fill="#C01232"/>
<path transform="translate(829,668)" d="m0 0h9l4 6v9l-8 7-3 1-4-8-1-3v-8z" fill="#C01232"/>
<path transform="translate(796,498)" d="m0 0 4 1 6 8v5l-8 8h-5l-4-7-1-7 5-6z" fill="#C01232"/>
<path transform="translate(1473,519)" d="m0 0 1 2-7 8-9 7-8 4-14 4-13 2-12 1-28-1-10-1 2-2h34l20-2 14-3 14-5 9-7 5-6z" fill="#630615"/>
<path transform="translate(594,416)" d="m0 0 3 1-1 9h3v14l-3 8-3 1-7-4-1-3 3-7 1-3h2l1-6 1-2-3 1-1-4 1-3z" fill="#C01232"/>
<path transform="translate(806,516)" d="m0 0 4 1 4 12v3l-10 8h-3l-4-9-2-5z" fill="#C01232"/>
<path transform="translate(771,539)" d="m0 0 5 1 7 12v4l-11 8-4 2v-21l2-5z" fill="#C01232"/>
<path transform="translate(813,476)" d="m0 0 3 2 2 7v6l-4 8-4 6-4-4-3-4v-6l4-8z" fill="#C01232"/>
<path transform="translate(779,512)" d="m0 0h5l3 4 2 5-1 5-6 5-6 1-4-5-1-3v-7l5-3z" fill="#C01232"/>
<path transform="translate(820,495)" d="m0 0h2l4 11-1 9-5 8-3 1-6-12 2-5 6-11z" fill="#C01232"/>
<path transform="translate(808,454)" d="m0 0h2l2 8v9l-6 9-4 2-3-5-3-6 4-5 4-7z" fill="#C01232"/>
<path transform="translate(575,854)" d="m0 0 2 1-1 2 3-1 4 4 1 6-1 2h-21l1-5-2-5 3-2 10-1z" fill="#C01232"/>
<path transform="translate(785,453)" d="m0 0 4 1 6 7-1 6-7 7-5-1-4-4v-6l6-9z" fill="#C01232"/>
<path transform="translate(1046,877)" d="m0 0h11l15 6 17 9 4 3 9 2 4 2-2 1h-8l-14-7-16-9-11-4-10 1-5 2h-12l-4-1v-2l18-1z" fill="#5C0211"/>
<path transform="translate(710,880)" d="m0 0h13v1l-11 2-12 5-7 3h-10l-10-3-10 1-16 8-9 6-17 6-2-1 6-3 7-3 10-6 7-4 5-3 10-3 2-1h7l8 3h9l9-3z" fill="#5C0211"/>
<path transform="translate(791,476)" d="m0 0 4 1 5 8-1 6-7 6-5 1-3-13 1-4z" fill="#C01232"/>
<path transform="translate(549,390)" d="m0 0 5 2 2 5 3 1 3 8-8 6-5 1-2-4v-8l-1-5-2-1v-3l6 1z" fill="#C01232"/>
<path transform="translate(789,530)" d="m0 0 4 1 4 8v5l-5 5-6 1-3-5-4-7v-2z" fill="#C01232"/>
<path transform="translate(894,844)" d="m0 0 4 1-8 4-6 6-1 7h-2l1 6 6-3 3-2 8-1 8 8 10 5 1 4-3 2v-5l-5-2-7-4-4-4h-6l-7 6-9 1-2-2 1-8 6-9 5-5 5-4z" fill="#01933B"/>
<path transform="translate(925,883)" d="m0 0 9 1 5 5-1 4-10 1-4 2h-9l-2-3 4-3 1-2 1-3z" fill="#BF1131"/>
<path transform="translate(685,319)" d="m0 0h2l1 3 21-1 18-2h6l-1 3-8 2-28 2-12 1h-18v-2l16-1v-2h2z" fill="#61171E"/>
<path transform="translate(891,813)" d="m0 0 9 2 2 5 4 2 2-1v2l8 1-1 3-14-4-2-3h-6l-1 2-15 1-7-1 1-3z" fill="#00953C"/>
<path transform="translate(902,227)" d="m0 0 6 2v4l-11 7-11 8-10 7-6 11-2 4-1-8 4-8 7-6 9-5 5-2 1-3 6-3h3v-3l-3-1z" fill="#630514"/>
<path transform="translate(921,804)" d="m0 0h7l5 2 3 1-1 9h-10l-11-4h-3l2-4z" fill="#C01232"/>
<path transform="translate(1493,353)" d="m0 0m-1 1m-1 1m-1 1m-1 1m-1 1m-1 1v3l-15 15-6 8-5 5 2 4 7 2-3 2-6-1-9-3 1-4 11-11 11-9 7-7z" fill="#600815"/>
<path transform="translate(565,901)" d="m0 0h1l-1 10 4 1 5-5 15-5 7 1 5 3 8 2h12l12-4 2 1-12 5-3 2-4 2-7-3-6-1v-2l-5-1-3-2h-8l-10 4-7 8-4 2-4-2v-8z" fill="#01943C"/>
<path transform="translate(548,851)" d="m0 0 7 1 1 2-5 5-6 7-2 6 7-1h20l3 2-12 3-2-1v-2l-7 2-3 2h-8l-3-3 2-5 7-10v-6z" fill="#01943C"/>
<path transform="translate(692,252)" d="m0 0h5l-3 3-12 2 6 11 3 7v6l-4 6-5 3 1-5 4-8-3-8-7-11v-2h-12v-1z" fill="#5D0412"/>
<path transform="translate(774,489)" d="m0 0h6l4 8v7l-5 4-4 2h-3v-11z" fill="#C01232"/>
<path transform="translate(805,435)" d="m0 0 2 1v12l-8 11-4-2-2-5 1-5z" fill="#C01232"/>
<path transform="translate(1283,529)" d="m0 0h13l32 4 30 7 14 3v1h-10l-11-2-18-5-10-2-14-2-22-1v-2z" fill="#600A16"/>
<path transform="translate(1259,812)" d="m0 0h8l8 6-1 5-3-1-3 1-2-2h-8l-2 1v2l-7-2 2-4 5-3z" fill="#C01232"/>
<path transform="translate(1050,879)" d="m0 0 9 1 16 8 10 6 11 5 18-1 5-1v3l-7 1-4 1h-11l-12-5-10-5-8-3-10-6-7-3z" fill="#01943C"/>
<path transform="translate(1e3 882)" d="m0 0h6l-3 2-22 3-19 5-16 7-8 3-8-2h-3l-5-1-9 5h-2v2l-4 3-4-1v-8h1l1 7 7-6 9-4h11l2 1h9l15-7 13-4 21-4z" fill="#01943C"/>
<path transform="translate(828,516)" d="m0 0h3l5 10-2 4-4 3-7 2-2-1v-6l5-7z" fill="#C01232"/>
<path transform="translate(914,816)" d="m0 0h8l5 2 2 5v4l-10-1-11-3 1-4z" fill="#FDFDFD"/>
<path transform="translate(622,685)" d="m0 0h2l2 5h2l8 11 8 12 5 13 5 12 2 7v9l-2-3-5-18-7-17-10-16-10-13z" fill="#690415"/>
<path transform="translate(495,416)" d="m0 0 1 3 3-2 5 1 4 6 3 3-4 2v2l-6-1-9-9v-4z" fill="#BB1130"/>
<path transform="translate(1443,780)" d="m0 0h1v9l-8 42-4 11h-2l1-9 6-24 4-17 1-10z" fill="#670314"/>
<path transform="translate(1448,677)" d="m0 0 4 1 12 7 14 10 6 5 6 8v3h-2l-4-6-15-12-11-7-10-7z" fill="#620514"/>
<path transform="translate(787,430)" d="m0 0 4 1 1 3v8l-7 8-4 1 1-9 3-10z" fill="#C01232"/>
<path transform="translate(960,494)" d="m0 0 2 1-1 2-22 5-28 6-15 2 1-2 21-5 26-5z" fill="#680716"/>
<path transform="translate(1340,885)" d="m0 0h10l16 7 4 1h10l16-6 4 1-18 7-4 1h-10l-9-3-7-3-8-3-11 2-4 2-3-1 10-4z" fill="#01943C"/>
<path transform="translate(883,295)" d="m0 0 10 4 15 8 7 7 1 5-1 1-7-1 4-3-5-4-13-8-9-5z" fill="#600614"/>
<path transform="translate(1239,238)" d="m0 0h1v10l3 12 5 10 5 4 11 5v2l-7-1-10-7v-2l-3-1-5-9-2-7v-12z" fill="#650B17"/>
<path transform="translate(1574,291)" d="m0 0h1l1 9v57l-2-1-1-9v-48z" fill="#610413"/>
<path transform="translate(862,210)" d="m0 0h5l-3 1v2l-8 3-10 2-16 8h-2v2l-7 6h-3l1-4 11-7 10-6 18-6z" fill="#720518"/>
<path transform="translate(1339,977)" d="m0 0h7l1 2h-2v2l-2 1-9 1h-19l-3-2 11-3h9z" fill="#00963C"/>
<path transform="translate(820,680)" d="m0 0h3l2 4-1 7-6 3h-6l2-10z" fill="#C01232"/>
<path transform="translate(499,462)" d="m0 0 3 2 6 11 6 5 2 1v2l5 2 2 1v3l-5-1-10-7-6-7-3-7z" fill="#620514"/>
<path transform="translate(445,886)" d="m0 0h2l-1 4-1 2h-3l-2 9-3 3-1 7-2 6-1 7-2-2v-11l4-11 8-12z" fill="#00953C"/>
<path transform="translate(512,840)" d="m0 0 7 1-1 2h-2v2l-9 1-4 2-5 1-10 5-4-1 10-6 12-5z" fill="#00953C"/>
<path transform="translate(1307,900)" d="m0 0 3 1-9 5-13 1-18 6-9 4h-6v-5l4-2-1 4 29-9 16-3z" fill="#01943C"/>
<path transform="translate(1379,637)" d="m0 0 7 2 21 12 12 7 1 2-6-2-11-5v-2l-5-1-11-6v-2l-5-2z" fill="#660515"/>
<path transform="translate(1172,735)" d="m0 0 5 1 23 8 19 4 6 3-4 1-7-1-4-2-12-3-10-3-10-4-6-3z" fill="#6B0717"/>
<path transform="translate(495,604)" d="m0 0 4 1 1 4h2v3l-4 1v2h-3v2l-9 4-6 3-3-1 10-6 6-2 2-5z" fill="#C01232"/>
<path transform="translate(902,193)" d="m0 0h2l-1 11-1 5-3-4v-2l-4 1-11 1 3-3 10-4z" fill="#630414"/>
<path transform="translate(1576,354)" d="m0 0h1l4 33 2 12h-2l-3-11-3-25z" fill="#660B17"/>
<path transform="translate(708,715)" d="m0 0h7l1 2-23 4-8 4-2 4-1-7 6-3z" fill="#6A0717"/>
<path transform="translate(1015,880)" d="m0 0h7l6 2h12l5-2h5l-2 2-4 2-5 3-5 1-5-2v-2l-19-2v-1z" fill="#01943C"/>
<path transform="translate(663,979)" d="m0 0h6 3 17l3 2-10 2h-14l-6-2z" fill="#00953C"/>
<path transform="translate(956,710)" d="m0 0v3l-20 14-12 5v-3l10-5 6-4 7-4z" fill="#670314"/>
<path transform="translate(1291,487)" d="m0 0h8v2l-19 5-10 4-3-1 8-5 11-4z" fill="#640916"/>
<path transform="translate(801,421)" d="m0 0 3 1v8l-6 7h-2v-10z" fill="#C01232"/>
<path transform="translate(704,488)" d="m0 0 1 2-1 2h-2l-2 5-3 5-2 18-3 1v-10l4-14 3-5z" fill="#6B0415"/>
<path transform="translate(1469,882)" d="m0 0 4 2v2l2 5 5 1 1 4-5-1-1-2-10-1 1-5z" fill="#C01232"/>
<path transform="translate(457,945)" d="m0 0 4 1 3 3 9 2 14 7-4 1-14-5-13-6z" fill="#00973C"/>
<path transform="translate(1350,884)" d="m0 0 9 3 9 4h13l12-4 3 1-16 6h-10l-11-4-9-4z" fill="#5C0211"/>
<path transform="translate(1113,882)" d="m0 0 5 3 2 2v6l-4 2-5-1 1-11z" fill="#C01232"/>
<path transform="translate(785,878)" d="m0 0 6 1-3 2 1 3h6v3l-4 1v3l-5-1-2-2v-9z" fill="#C01232"/>
<path transform="translate(769,571)" d="m0 0 4 2v4h2l-1 5-4 5h-2v-15z" fill="#C01232"/>
<path transform="translate(622,685)" d="m0 0h2l2 5h2l8 11 8 12v3l-3-1-7-12-12-16z" fill="#700517"/>
<path transform="translate(783,562)" d="m0 0 3 1-1 7-5 5-3-4 1-5z" fill="#C01232"/>
<path transform="translate(1512,335)" d="m0 0v3l-9 10-4 2v2l-8 7h-3l15-16z" fill="#6A0415"/>
<path transform="translate(572,820)" d="m0 0 3 1-2 4v3 2l-5 3h-3l1-6z" fill="#5F1219"/>
<path transform="translate(792,555)" d="m0 0h6l2 2-3 4h-2l-1 3-4-1-2-6z" fill="#C01232"/>
<path transform="translate(814,537)" d="m0 0h3l1 3-4 5-5 2h-4l1-4z" fill="#C01232"/>
<path transform="translate(667,887)" d="m0 0 10 1 6 2h13l-2 2-7 1-10-1h-3v-2h-13l2-2z" fill="#01943C"/>
<path transform="translate(548,851)" d="m0 0 7 1 1 2-9 9-2-1 2-5z" fill="#05963F"/>
<path transform="translate(1390,731)" d="m0 0h1l3 23v6l-2-1-3-15v-12z" fill="#640916"/>
<path transform="translate(493,436)" d="m0 0h2l2 9 2 4-1 7-2-1-4-10v-8z" fill="#620614"/>
<path transform="translate(523,581)" d="m0 0h2l-2 6-5 14-4 1 1-6h2l1-7h2l1-5z" fill="#680616"/>
<path transform="translate(886,320)" d="m0 0 9 1-1 2-7 4-1 1h-5l2-5z" fill="#610212"/>
<path transform="translate(594,416)" d="m0 0 3 1-1 8-3 2v-3l-3 1-1-4 1-3z" fill="#B8102F"/>
<path transform="translate(1069,308)" d="m0 0m-2 1 2 1-5 5-13 10-4 3-2-1 14-12z" fill="#710518"/>
<path transform="translate(816,234)" d="m0 0 1 4-6 10-3 1 1-7 3-5z" fill="#5C0211"/>
<path transform="translate(1035,768)" d="m0 0 11 5 9 3v2l-7-1-9-3-4-3z" fill="#6C0717"/>
<path transform="translate(656,752)" d="m0 0 2 3 2 12 1 3-3 3-2-5z" fill="#670716"/>
<path transform="translate(765,848)" d="m0 0 5 2 1 5-1 2h-2l-1 2v-2l-5-2 2-5z" fill="#01943C"/>
<path transform="translate(494,960)" d="m0 0h11l14 5-1 2-11-3-12-2z" fill="#00973D"/>
<path transform="translate(918,503)" d="m0 0 3 1h-2v2l-20 4-3-1 9-3z" fill="#6F0517"/>
<path transform="translate(1135,262)" d="m0 0m-2 1 2 1-4 4-8 6-7 4-2-1 5-5z" fill="#6F0517"/>
<path transform="translate(1348,539)" d="m0 0 10 1 14 3v1h-10l-11-2z" fill="#600915"/>
<path transform="translate(737,412)" d="m0 0h2l-1 4-8 16h-1l1-8 4-8z" fill="#690415"/>
<path transform="translate(1114,276)" d="m0 0m-2 1h2l-2 4-14 10-2-1 5-5z" fill="#650715"/>
<path transform="translate(721,293)" d="m0 0h7l12 4 4 4-10-3-8-2-9-1z" fill="#6A0B18"/>
<path transform="translate(862,210)" d="m0 0h5l-3 1v2l-8 3-9 1 1-3z" fill="#660715"/>
<path transform="translate(1275,886)" d="m0 0 4 1-8 4-8 9-4 9-2-1 1-5 7-9 8-7z" fill="#01943C"/>
<path transform="translate(573,346)" d="m0 0h18l8 1-2 2-21-1z" fill="#790A1C"/>
<path transform="translate(902,227)" d="m0 0 6 2v4l-6 3v-4l-3-1z" fill="#660716"/>
<path transform="translate(1283,529)" d="m0 0h13l9 1-3 2h-15v-2z" fill="#7C0B1D"/>
<path transform="translate(522,496)" d="m0 0h1l-1 21-2 3-1-3 1-14z" fill="#5C0914"/>
<path transform="translate(1247,271)" d="m0 0 4 2 13 6v2l-7-1-10-7z" fill="#670716"/>
<path transform="translate(1456,964)" d="m0 0h11l7 1v1l-5 1h-15z" fill="#01943C"/>
<path transform="translate(1443,780)" d="m0 0h1v9l-3 16-2-2 3-21z" fill="#78061A"/>
<path transform="translate(719,451)" d="m0 0 1 2-4 8-3 7-1 5-3 1 3-11 6-11z" fill="#6E0818"/>
<path transform="translate(935,500)" d="m0 0h5l-1 2-14 3h-6l2-2 6-2z" fill="#600614"/>
<path transform="translate(1216,679)" d="m0 0 5 2 12 5v3l-6-2-9-5z" fill="#6F0517"/>
<path transform="translate(692,718)" d="m0 0m-4 1h4l-1 3-6 3-2 4-1-7z" fill="#6D0416"/>
<path transform="translate(840,828)" d="m0 0h11v2l2 1-6 2-4-1v-2h-3z" fill="#01943C"/>
<path transform="translate(591,888)" d="m0 0h3l1 11-5 1-1-2 3-6z" fill="#C01232"/>
<path transform="translate(750,379)" d="m0 0 3 1-7 12h-2l1-6z" fill="#6C0918"/>
<path transform="translate(1287,894)" d="m0 0v3l-1 2h3l-2 4-4 1-1-5h2l2-4z" fill="#BD1131"/>
<path transform="translate(651,737)" d="m0 0 3 1 2 7v9l-2-3z" fill="#720518"/>
<path transform="translate(1491,572)" d="m0 0m-1 1 1 3-13 9-3-1 11-8z" fill="#6C0416"/>
<path transform="translate(1473,519)" d="m0 0 1 2-7 8-3 3-2-1 9-11z" fill="#6E0A19"/>
<path transform="translate(1348,976)" d="m0 0 12 1-2 2-10 1z" fill="#00953C"/>
<path transform="translate(704,488)" d="m0 0 1 2-1 2h-2l-2 5-4 5 1-7 5-5z" fill="#650314"/>
<path transform="translate(777,474)" d="m0 0h2l1 7-2 2h-3z" fill="#C01232"/>
<path transform="translate(1211,747)" d="m0 0 10 2 4 3-11-1-1-3z" fill="#660F19"/>
<path transform="translate(1283,697)" d="m0 0h11v2l-2 1h-8z" fill="#700B1A"/>
<path transform="translate(1529,950)" d="m0 0h5v3l-2 2h-5z" fill="#00943C"/>
<path transform="translate(824,227)" d="m0 0h2l-2 5-3 2h-3l1-4z" fill="#630313"/>
<path transform="translate(936,722)" d="m0 0m-1 1m-1 1m-1 1m-2 1h2l-1 3-9 3 1-3z" fill="#6F0517"/>
<path transform="translate(637,706)" d="m0 0 3 1 4 6v3l-3-1-4-7z" fill="#730518"/>
<path transform="translate(530,571)" d="m0 0h2l-2 5-3 4-3-1z" fill="#730518"/>
</svg>
